# xmcd
#
# Track frame offsets:
#	150
#	30392
#	44210
#	64461
#	78636
#	93067
#	115335
#	126239
#	145386
#	167293
#	182657
#	198399
#	220410
#	240476
#	262681
#
# Disc length: 3650 seconds
#
# Revision: 0
# Processed by: cddbd v1.5.2PL0 Copyright (c) Steve Scherf et al.
# Submitted via: EasyCDDAExtractor 11.9.9.666
#
DISCID=d30e400f
DTITLE=Various Artist - Metal Hammer #149 CD2: Prosthetic Records
DYEAR=2006
DGENRE=Metal
TTITLE0=Himsa - Wither
TTITLE1=Yakuza - Cancer of Industry
TTITLE2=Born in Silence - Embrace the Plague (demo)
TTITLE3=All That Remains - The Deepest Gray
TTITLE4=Byzantine - Taking Up Serpents
TTITLE5=Through the Eyes of the Dead - When Everything Becomes Nothing
TTITLE6=The Acacia Strain - 4x4 (demo)
TTITLE7=Reflux - Above the Pyramid and the Eye
TTITLE8=Lamb of God - Black Label
TTITLE9=Light This City - The Static Masses
TTITLE10=Kylesa - Train of Thought
TTITLE11=Cannae - Fear and Panic
TTITLE12=The Esoteric - Ram-Faced Boy
TTITLE13=The Minor Times - The Pugilist at Work
TTITLE14=Invocation of Nehek - Perfect Role
EXTD=
EXTT0=
EXTT1=
EXTT2=
EXTT3=
EXTT4=
EXTT5=
EXTT6=
EXTT7=
EXTT8=
EXTT9=
EXTT10=
EXTT11=
EXTT12=
EXTT13=
EXTT14=
PLAYORDER=
